<?xml version="1.0" encoding="utf-8"?>
<!-- Generator: Adobe Illustrator 26.0.1, SVG Export Plug-In . SVG Version: 6.00 Build 0)  -->
<svg version="1.1" id="Layer_1" xmlns="http://www.w3.org/2000/svg" xmlns:xlink="http://www.w3.org/1999/xlink" x="0px" y="0px"
	 viewBox="0 0 252.9 252.9" style="enable-background:new 0 0 252.9 252.9;" xml:space="preserve">
<style type="text/css">
	.st0{fill:#FFCC01;}
	.st1{fill:#05234B;}
	.st2{fill:none;stroke:#13244A;stroke-width:2;stroke-miterlimit:10;}
	.st3{fill:none;stroke:#FFFFFF;stroke-width:1.42;stroke-miterlimit:10;stroke-opacity:0;}
	.st4{font-family:'MyriadPro-Bold';}
	.st5{font-size:25.51px;}
	.st6{enable-background:new    ;}
</style>
<path class="st0" d="M252.9,126.4c0,69.8-56.6,126.5-126.4,126.5S0,196.3,0,126.5S56.6,0,126.4,0l0,0
	C196.3,0,252.9,56.6,252.9,126.4L252.9,126.4"/>
<path class="st1" d="M89.3,117.4c0,14.8-6.6,23.2-13.4,28.7c-5.5,4.5-13,6.9-17.8,6.9c-18.5,0-33.7-14.8-33.7-35.7
	c0-14.5,7.3-23.6,12.9-27.9c5.5-4.2,12.1-6.4,19-6.4C74.9,83,89.3,98.1,89.3,117.4z M40.9,91.9c-2.7,3-6.8,9.7-6.8,22.9
	c0,9.6,3.4,19.8,9.1,26.7c4.3,5.1,9.7,8.6,16.1,8.6c5,0,9.7-2.9,12.9-6.4c5-5.4,7.4-15.4,7.4-24.1c0-14.4-8.6-34-26-34
	C48.5,85.6,43.6,88.9,40.9,91.9z"/>
<path class="st1" d="M109.1,84.7c2.4,0,9.1,0.3,13.5,0.3c0.5,0,0.9,0.8,1,1.1c0.3,2.2,1.9,6.1,5.5,14.4c3.2,7.6,11.3,27.1,15.4,35.1
	c0.1,0.3,0.8,0,0.9-0.4c3.9-7.9,13.3-30.8,17.7-40.2c1.1-2.6,2.1-5.9,3.2-8.9c0.2-0.4,0.6-1.3,1-1.3c5.1-0.1,11.7-0.2,13.2-0.2
	c1,0,1.9,0.2,1.9,0.8s-0.9,1.2-2,1.4c-6.1,1.2-6.6,2.9-6.6,6.4c-0.3,20.5,0.6,33.9,0.9,40.8c0.4,12.4,1,13.2,6.7,14.6
	c1.5,0.4,2.1,0.9,2.1,1.6s-0.5,1-2.6,1c-2.4,0-8.1-0.5-11.9-0.5c-2.8,0-5.8,0.3-7.9,0.3c-1.7,0-2.2-0.4-2.2-1.1s0.8-1.1,2.1-1.4
	c3.1-0.7,4.6-2.5,4.7-7.1c0.7-14.6,0.1-29.7-0.1-44c0-0.4-0.5-0.6-0.6-0.4c-4,8.3-15.3,35.4-17.4,40.8s-3.5,8.9-4.4,11.5
	c-0.7,2-1.3,2.8-1.9,2.8s-1.4-1.8-1.9-3.2s-1.7-4.6-4.4-11.4c-4.5-11.2-10-25.2-15.3-37.8c-0.8-1.7-1.2,0.4-1.3,1.3
	c-0.6,6.6-1.2,30.7-1.2,38.4c0,6.9,2.1,7.2,6.2,8.9c1,0.3,2.3,0.9,2.3,1.6c0,0.9-1.7,1.2-2.5,1.2c-1.3,0-4.4-0.4-8.5-0.4
	c-4.4,0-6.5,0.5-7.8,0.5c-1.6,0-2.5-0.3-2.5-1.1s1-1,2.3-1.6c4.4-1.6,5.6-3.1,6.3-10.1c1.1-10.6,2.8-33.3,2.8-44
	c0-1.4-1.3-5.2-2.8-6.1c-1.6-0.7-3.2-1.3-4.8-1.8c-0.8-0.2-1.5-0.7-1.5-1.4C107,84.9,107.7,84.7,109.1,84.7z"/>
<path class="st1" d="M206.6,84.5c1.4,0,3.1,0.1,4.9,0.2s3.7,0.2,5.5,0.2s3.6-0.1,5.1-0.2s2.9-0.2,4.1-0.2c0.6,0,1.2,0,1.8,0.3
	c0.3,0.1,0.4,0.4,0.4,0.8c0,0.3-0.2,0.5-0.4,0.7c-0.5,0.3-1.1,0.5-1.6,0.7c-2,0.5-3.2,1.1-3.8,2.5s-0.7,3.6-0.8,7.2
	c-0.1,4.3-0.1,9.8-0.1,15.5s-0.1,11.5-0.1,16.6c-0.1,6.6-0.2,11.2-0.3,14.8s-0.3,6.1-0.6,8.3c-0.8,6.2-3.8,11.8-9.3,15
	c-5.1,3.2-11.2,4.3-17.1,3.1c0-1.2,0-5.3,0-7.3c0-2.8,0-3.1,0-3.9c0.2,0,4.7,2.1,5.7,2.5c2.1,0.6,4.3,0.8,6.4,0.8
	c0.8,0,1.6-0.3,2.2-0.7c0.7-0.5,1.3-1.1,1.8-1.9c1-2.1,1.7-4,2.1-8.2s0.5-10.7,0.5-22c0-6.3-0.1-11.8-0.1-17s-0.2-9.8-0.3-14.5
	c-0.1-4.1-0.3-6.6-1.2-8.1s-2.4-2.2-5-2.8c-0.6-0.1-1.1-0.3-1.6-0.6c-0.3-0.1-0.5-0.4-0.5-0.7c0-0.3,0.3-0.6,0.6-0.8
	C205.4,84.5,206,84.4,206.6,84.5z"/>
<line class="st2" x1="96.3" y1="83.5" x2="96.3" y2="153.5"/>
<line class="st3" x1="96.3" y1="83.5" x2="96.3" y2="153.5"/>
<line class="st2" x1="192.2" y1="83.5" x2="192.2" y2="153.5"/>
<line class="st3" x1="192.2" y1="83.5" x2="192.2" y2="153.5"/>
<text transform="matrix(1.02 0 0 1 71.2593 170.5703)" class="st4 st5">  </text>
<text transform="matrix(1.02 0 0 1 130.0093 170.5703)" class="st4 st5">  </text>
<g class="st6">
	<path d="M302.5,201.7h2.8v7.6c0,3.4-1.7,4.6-4.3,4.6c-0.6,0-1.5-0.1-2-0.3l0.3-2.2c0.4,0.1,0.9,0.2,1.4,0.2c1.2,0,1.9-0.5,1.9-2.4
		v-7.5H302.5z"/>
	<path d="M318.7,207.6c0,3.9-2.4,6.3-6,6.3s-5.7-2.7-5.7-6.1c0-3.6,2.3-6.3,5.9-6.3C316.6,201.5,318.7,204.3,318.7,207.6z
		 M309.9,207.8c0,2.4,1.1,4,3,4s2.9-1.7,2.9-4.1c0-2.2-1.1-4-3-4C311,203.7,309.9,205.5,309.9,207.8z"/>
	<path d="M323.3,201.7v6.9c0,2.1,0.8,3.1,2.2,3.1s2.2-1,2.2-3.1v-6.9h2.8v6.7c0,3.7-1.9,5.5-5.1,5.5c-3.1,0-4.9-1.7-4.9-5.5v-6.7
		H323.3z"/>
	<path d="M332.9,201.9c0.9-0.1,2.2-0.2,3.7-0.2c1.8,0,3.1,0.3,3.9,0.9c0.7,0.6,1.1,1.4,1.1,2.5c0,1.5-1.1,2.6-2.2,3v0.1
		c0.9,0.3,1.3,1.1,1.6,2.2c0.4,1.4,0.8,2.9,1,3.4h-2.8c-0.2-0.3-0.5-1.3-0.9-2.8c-0.3-1.5-0.9-1.9-2-1.9h-0.8v4.7h-2.6V201.9z
		 M335.6,207.1h1.1c1.4,0,2.2-0.7,2.2-1.7c0-1.1-0.8-1.7-2-1.7c-0.7,0-1.1,0.1-1.2,0.1v3.3H335.6z"/>
	<path d="M343.6,213.8v-12h3.2l2.5,4.4c0.7,1.3,1.4,2.8,2,4.1h0.1c-0.2-1.6-0.2-3.2-0.2-5v-3.5h2.5v12h-2.9l-2.6-4.6
		c-0.7-1.3-1.5-2.8-2.1-4.2H346c0.1,1.6,0.1,3.3,0.1,5.2v3.6H343.6z"/>
	<path d="M358.9,210.7l-0.9,3.1h-2.9l3.7-12h3.6l3.8,12h-3l-0.9-3.1H358.9z M362,208.6l-0.8-2.6c-0.2-0.7-0.4-1.6-0.6-2.3l0,0
		c-0.2,0.7-0.4,1.6-0.6,2.3l-0.7,2.6H362z"/>
	<path d="M368,201.7h2.8v9.7h4.9v2.3h-7.6v-12H368z"/>
</g>
<g>
	<g class="st6">
		<path d="M32.6,164.3c0,3.5-1.9,5.6-4.6,5.6c-2.8,0-4.4-2.4-4.4-5.4c0-3.2,1.8-5.6,4.6-5.6C31.1,158.8,32.6,161.3,32.6,164.3z
			 M25.8,164.4c0,2.1,0.9,3.6,2.3,3.6c1.4,0,2.3-1.6,2.3-3.6c0-1.9-0.8-3.6-2.3-3.6C26.7,160.8,25.8,162.3,25.8,164.4z"/>
		<path d="M42,165.6c0-1.3-0.1-2.8-0.1-4.4h0c-0.3,1.4-0.7,2.9-1,4.1l-1.1,4.2H38l-1-4.1c-0.3-1.3-0.6-2.8-0.9-4.2h0
			c-0.1,1.4-0.1,3.1-0.2,4.4l-0.2,4.1h-2l0.6-10.7h2.8l0.9,3.6c0.3,1.2,0.6,2.6,0.8,3.8h0c0.3-1.2,0.6-2.7,0.9-3.8l1-3.6h2.8
			l0.5,10.7h-2.1L42,165.6z"/>
		<path d="M48,167l-0.7,2.7h-2.2L48,159h2.8l2.9,10.7h-2.3l-0.7-2.7H48z M50.3,165.2l-0.6-2.3c-0.2-0.6-0.3-1.4-0.5-2.1h0
			c-0.1,0.6-0.3,1.4-0.4,2.1l-0.6,2.3H50.3z"/>
		<path d="M54.9,169.7V159h2.5l2,3.9c0.6,1.1,1.1,2.5,1.5,3.7h0c-0.1-1.4-0.2-2.9-0.2-4.5V159h2v10.7h-2.2l-2-4.1
			c-0.6-1.1-1.2-2.5-1.6-3.8l0,0c0.1,1.4,0.1,2.9,0.1,4.7v3.2H54.9z"/>
	</g>
	<g class="st6">
		<path d="M77.7,165.6c0-1.3-0.1-2.8-0.1-4.4h0c-0.3,1.4-0.7,2.9-1,4.1l-1.1,4.2h-1.7l-1-4.1c-0.3-1.3-0.6-2.8-0.9-4.2h0
			c-0.1,1.4-0.1,3.1-0.2,4.4l-0.2,4.1h-2l0.6-10.7H73l0.9,3.6c0.3,1.2,0.6,2.6,0.8,3.8h0c0.3-1.2,0.6-2.7,0.9-3.8l1-3.6h2.8
			l0.5,10.7h-2.1L77.7,165.6z"/>
		<path d="M87.2,165.2h-3.5v2.5h3.9v2h-6V159h5.8v2h-3.7v2.2h3.5V165.2z"/>
		<path d="M89,159.2c0.8-0.1,1.8-0.2,2.9-0.2c1.8,0,2.9,0.4,3.8,1.1c1,0.8,1.6,2.1,1.6,4c0,2.1-0.7,3.5-1.6,4.3
			c-1,0.9-2.5,1.4-4.3,1.4c-1.1,0-1.9-0.1-2.4-0.2V159.2z M91.2,167.9c0.2,0,0.5,0,0.7,0c1.9,0,3.2-1.2,3.2-3.7c0-2.2-1.1-3.4-3-3.4
			c-0.5,0-0.8,0-1,0.1V167.9z"/>
		<path d="M100.9,159v10.7h-2.1V159H100.9z"/>
		<path d="M109.6,169.4c-0.4,0.2-1.3,0.5-2.4,0.5c-3.2,0-4.9-2.3-4.9-5.4c0-3.7,2.3-5.7,5.1-5.7c1.1,0,1.9,0.3,2.3,0.5l-0.4,1.9
			c-0.4-0.2-1-0.4-1.8-0.4c-1.7,0-3,1.2-3,3.5c0,2.1,1.1,3.5,3,3.5c0.6,0,1.4-0.2,1.8-0.3L109.6,169.4z"/>
		<path d="M113.3,167l-0.7,2.7h-2.2l2.9-10.7h2.8l2.9,10.7h-2.3L116,167H113.3z M115.7,165.2l-0.6-2.3c-0.2-0.6-0.3-1.4-0.5-2.1h0
			c-0.1,0.6-0.3,1.4-0.4,2.1l-0.6,2.3H115.7z"/>
		<path d="M120.3,159h2.1v8.7h3.7v2h-5.9V159z"/>
	</g>
	<g class="st6">
		<path d="M134.3,159h2.1v6.8c0,3.1-1.3,4.1-3.3,4.1c-0.5,0-1.1-0.1-1.5-0.3l0.2-2c0.3,0.1,0.7,0.2,1.1,0.2c0.9,0,1.5-0.5,1.5-2.1
			V159z"/>
		<path d="M146.8,164.3c0,3.5-1.9,5.6-4.6,5.6c-2.8,0-4.4-2.4-4.4-5.4c0-3.2,1.8-5.6,4.6-5.6C145.2,158.8,146.8,161.3,146.8,164.3z
			 M140,164.4c0,2.1,0.9,3.6,2.3,3.6c1.4,0,2.3-1.6,2.3-3.6c0-1.9-0.8-3.6-2.3-3.6C140.9,160.8,140,162.3,140,164.4z"/>
		<path d="M150.3,159v6.2c0,1.8,0.6,2.8,1.7,2.8c1.1,0,1.7-0.9,1.7-2.8V159h2.1v6c0,3.3-1.5,4.9-3.9,4.9c-2.4,0-3.8-1.5-3.8-4.9v-6
			H150.3z"/>
		<path d="M157.7,159.2c0.7-0.1,1.7-0.2,2.8-0.2c1.4,0,2.4,0.2,3,0.8c0.6,0.5,0.9,1.3,0.9,2.2c0,1.4-0.9,2.3-1.7,2.6v0
			c0.7,0.3,1,1,1.3,2c0.3,1.2,0.6,2.6,0.8,3h-2.2c-0.2-0.3-0.4-1.2-0.7-2.5c-0.3-1.3-0.7-1.7-1.5-1.7h-0.6v4.2h-2.1V159.2z
			 M159.8,163.8h0.8c1.1,0,1.7-0.6,1.7-1.5c0-1-0.6-1.5-1.6-1.5c-0.5,0-0.8,0-1,0.1V163.8z"/>
		<path d="M166,169.7V159h2.5l2,3.9c0.6,1.1,1.1,2.5,1.5,3.7h0c-0.1-1.4-0.2-2.9-0.2-4.5V159h2v10.7h-2.2l-2-4.1
			c-0.6-1.1-1.2-2.5-1.6-3.8l0,0c0.1,1.4,0.1,2.9,0.1,4.7v3.2H166z"/>
		<path d="M177.8,167l-0.7,2.7h-2.2l2.9-10.7h2.8l2.9,10.7h-2.3l-0.7-2.7H177.8z M180.2,165.2l-0.6-2.3c-0.2-0.6-0.3-1.4-0.5-2.1h0
			c-0.1,0.6-0.3,1.4-0.4,2.1l-0.6,2.3H180.2z"/>
		<path d="M184.8,159h2.1v8.7h3.7v2h-5.9V159z"/>
	</g>
</g>
</svg>
