<?xml version="1.0" encoding="utf-8"?>
<!-- Generator: Adobe Illustrator 26.0.1, SVG Export Plug-In . SVG Version: 6.00 Build 0)  -->
<svg version="1.1" id="Layer_1" xmlns="http://www.w3.org/2000/svg" xmlns:xlink="http://www.w3.org/1999/xlink" x="0px" y="0px"
	 viewBox="0 0 252.9 252.9" style="enable-background:new 0 0 252.9 252.9;" xml:space="preserve">
<style type="text/css">
	.st0{fill:#FFCC01;}
	.st1{fill:#05234B;}
	.st2{fill:none;stroke:#13244A;stroke-width:2;stroke-miterlimit:10;}
	.st3{fill:none;stroke:#FFFFFF;stroke-width:1.42;stroke-miterlimit:10;stroke-opacity:0;}
	.st4{enable-background:new    ;}
	.st5{font-family:'MyriadPro-Bold';}
	.st6{font-size:25.51px;}
</style>
<path class="st0" d="M252.9,126.4c0,69.8-56.6,126.5-126.4,126.5C56.7,252.9,0,196.3,0,126.5S56.6,0,126.4,0l0,0
	C196.3,0,252.9,56.6,252.9,126.4C252.9,126.4,252.9,126.4,252.9,126.4"/>
<path class="st1" d="M89.3,117.4c0,14.8-6.6,23.2-13.4,28.7c-5.5,4.5-13,6.9-17.8,6.9c-18.5,0-33.7-14.8-33.7-35.7
	c0-14.5,7.3-23.6,12.9-27.9c5.5-4.2,12.1-6.4,19-6.4C74.9,83,89.3,98.1,89.3,117.4z M40.9,91.9c-2.7,3-6.8,9.7-6.8,22.9
	c0,9.6,3.4,19.8,9.1,26.7c4.3,5.1,9.7,8.6,16.1,8.6c5,0,9.7-2.9,12.9-6.4c5-5.4,7.4-15.4,7.4-24.1c0-14.4-8.6-34-26-34
	C48.5,85.6,43.6,88.9,40.9,91.9z"/>
<path class="st1" d="M109.1,84.7c2.4,0,9.1,0.3,13.5,0.3c0.5,0,0.9,0.8,1,1.1c0.3,2.2,1.9,6.1,5.5,14.4c3.2,7.6,11.3,27.1,15.4,35.1
	c0.1,0.3,0.8,0,0.9-0.4c3.9-7.9,13.3-30.8,17.7-40.2c1.1-2.6,2.1-5.9,3.2-8.9c0.2-0.4,0.6-1.3,1-1.3c5.1-0.1,11.7-0.2,13.2-0.2
	c1,0,1.9,0.2,1.9,0.8s-0.9,1.2-2,1.4c-6.1,1.2-6.6,2.9-6.6,6.4c-0.3,20.5,0.6,33.9,0.9,40.8c0.4,12.4,1,13.2,6.7,14.6
	c1.5,0.4,2.1,0.9,2.1,1.6s-0.5,1-2.6,1c-2.4,0-8.1-0.5-11.9-0.5c-2.8,0-5.8,0.3-7.9,0.3c-1.7,0-2.2-0.4-2.2-1.1s0.8-1.1,2.1-1.4
	c3.1-0.7,4.6-2.5,4.7-7.1c0.7-14.6,0.1-29.7-0.1-44c0-0.4-0.5-0.6-0.6-0.4c-4,8.3-15.3,35.4-17.4,40.8s-3.5,8.9-4.4,11.5
	c-0.7,2-1.3,2.8-1.9,2.8s-1.4-1.8-1.9-3.2s-1.7-4.6-4.4-11.4c-4.5-11.2-10-25.2-15.3-37.8c-0.8-1.7-1.2,0.4-1.3,1.3
	c-0.6,6.6-1.2,30.7-1.2,38.4c0,6.9,2.1,7.2,6.2,8.9c1,0.3,2.3,0.9,2.3,1.6c0,0.9-1.7,1.2-2.5,1.2c-1.3,0-4.4-0.4-8.5-0.4
	c-4.4,0-6.5,0.5-7.8,0.5c-1.6,0-2.5-0.3-2.5-1.1s1-1,2.3-1.6c4.4-1.6,5.6-3.1,6.3-10.1c1.1-10.6,2.8-33.3,2.8-44
	c0-1.4-1.3-5.2-2.8-6.1c-1.6-0.7-3.2-1.3-4.8-1.8c-0.8-0.2-1.5-0.7-1.5-1.4C107,84.9,107.7,84.7,109.1,84.7z"/>
<path class="st1" d="M206.6,84.5c1.4,0,3.1,0.1,4.9,0.2s3.7,0.2,5.5,0.2s3.6-0.1,5.1-0.2s2.9-0.2,4.1-0.2c0.6,0,1.2,0,1.8,0.3
	c0.3,0.1,0.4,0.4,0.4,0.8c0,0.3-0.2,0.5-0.4,0.7c-0.5,0.3-1.1,0.5-1.6,0.7c-2,0.5-3.2,1.1-3.8,2.5s-0.7,3.6-0.8,7.2
	c-0.1,4.3-0.1,9.8-0.1,15.5s-0.1,11.5-0.1,16.6c-0.1,6.6-0.2,11.2-0.3,14.8s-0.3,6.1-0.6,8.3c-0.8,6.2-3.8,11.8-9.3,15
	c-5.1,3.2-11.2,4.3-17.1,3.1c0-1.2,0-5.3,0-7.3c0-2.8,0-3.1,0-3.9c0.2,0,4.7,2.1,5.7,2.5c2.1,0.6,4.3,0.8,6.4,0.8
	c0.8,0,1.6-0.3,2.2-0.7c0.7-0.5,1.3-1.1,1.8-1.9c1-2.1,1.7-4,2.1-8.2s0.5-10.7,0.5-22c0-6.3-0.1-11.8-0.1-17s-0.2-9.8-0.3-14.5
	c-0.1-4.1-0.3-6.6-1.2-8.1s-2.4-2.2-5-2.8c-0.6-0.1-1.1-0.3-1.6-0.6c-0.3-0.1-0.5-0.4-0.5-0.7c0-0.3,0.3-0.6,0.6-0.8
	C205.4,84.5,206,84.4,206.6,84.5z"/>
<line class="st2" x1="96.3" y1="83.5" x2="96.3" y2="153.5"/>
<line class="st3" x1="96.3" y1="83.5" x2="96.3" y2="153.5"/>
<line class="st2" x1="192.2" y1="83.5" x2="192.2" y2="153.5"/>
<line class="st3" x1="192.2" y1="83.5" x2="192.2" y2="153.5"/>
<g class="st4">
	<path d="M47.4,164.4c0,3.9-2.4,6.3-6,6.3c-3.6,0-5.7-2.7-5.7-6.1c0-3.6,2.3-6.3,5.9-6.3C45.3,158.3,47.4,161.1,47.4,164.4z
		 M38.5,164.6c0,2.4,1.1,4,3,4c1.9,0,2.9-1.7,2.9-4.1c0-2.2-1-4-3-4C39.6,160.5,38.5,162.3,38.5,164.6z"/>
	<path d="M59.5,166c-0.1-1.4-0.1-3.2-0.1-4.9h-0.1c-0.4,1.5-0.9,3.2-1.4,4.7l-1.5,4.7h-2.2l-1.3-4.7c-0.4-1.4-0.8-3.1-1.1-4.7h0
		c-0.1,1.6-0.1,3.5-0.2,5l-0.2,4.6h-2.6l0.8-12h3.7l1.2,4c0.4,1.4,0.8,2.9,1,4.3h0.1c0.3-1.4,0.8-3,1.2-4.3l1.3-4h3.6l0.7,12h-2.7
		L59.5,166z"/>
	<path d="M67.3,167.5l-0.9,3.1h-2.9l3.7-12H71l3.8,12h-3l-0.9-3.1H67.3z M70.4,165.4l-0.8-2.6c-0.2-0.7-0.4-1.6-0.6-2.3h0
		c-0.2,0.7-0.4,1.6-0.6,2.3l-0.7,2.6H70.4z"/>
	<path d="M76.4,170.6v-12h3.2l2.5,4.4c0.7,1.3,1.4,2.8,2,4.1h0.1c-0.2-1.6-0.2-3.2-0.2-5v-3.5h2.5v12h-2.9l-2.6-4.6
		c-0.7-1.3-1.5-2.8-2.1-4.2l-0.1,0c0.1,1.6,0.1,3.3,0.1,5.2v3.6H76.4z"/>
</g>
<text transform="matrix(1.02 0 0 1 71.2596 170.5703)" class="st5 st6">  </text>
<g class="st4">
	<path d="M89.7,166c-0.1-1.4-0.1-3.2-0.1-4.9h-0.1c-0.4,1.5-0.9,3.2-1.4,4.7l-1.5,4.7h-2.2l-1.3-4.7c-0.4-1.4-0.8-3.1-1.1-4.7h0
		c-0.1,1.6-0.1,3.5-0.2,5l-0.2,4.6h-2.6l0.8-12h3.7l1.2,4c0.4,1.4,0.8,2.9,1,4.3h0.1c0.3-1.4,0.8-3,1.2-4.3l1.3-4H92l0.7,12h-2.7
		L89.7,166z"/>
	<path d="M102,165.5h-4.5v2.9h5v2.2h-7.8v-12h7.5v2.2h-4.8v2.5h4.5V165.5z"/>
	<path d="M104.4,158.7c1-0.2,2.3-0.2,3.7-0.2c2.3,0,3.8,0.4,5,1.3c1.3,0.9,2.1,2.4,2.1,4.5c0,2.3-0.9,3.9-2,4.9
		c-1.3,1.1-3.2,1.6-5.6,1.6c-1.4,0-2.4-0.1-3.1-0.2V158.7z M107.2,168.5c0.2,0.1,0.6,0.1,1,0.1c2.5,0,4.1-1.3,4.1-4.2
		c0-2.5-1.5-3.8-3.8-3.8c-0.6,0-1,0.1-1.2,0.1V168.5z"/>
	<path d="M119.8,158.5v12H117v-12H119.8z"/>
	<path d="M131.2,170.2c-0.5,0.2-1.6,0.5-3.1,0.5c-4.2,0-6.4-2.6-6.4-6c0-4.1,3-6.4,6.7-6.4c1.4,0,2.5,0.3,3,0.5l-0.6,2.2
		c-0.6-0.2-1.3-0.4-2.3-0.4c-2.2,0-3.9,1.3-3.9,4c0,2.4,1.4,3.9,3.9,3.9c0.8,0,1.8-0.2,2.3-0.4L131.2,170.2z"/>
	<path d="M135.8,167.5l-0.9,3.1h-2.9l3.7-12h3.6l3.8,12h-3l-0.9-3.1H135.8z M138.9,165.4l-0.8-2.6c-0.2-0.7-0.4-1.6-0.6-2.3h0
		c-0.2,0.7-0.4,1.6-0.6,2.3l-0.7,2.6H138.9z"/>
	<path d="M144.8,158.5h2.8v9.7h4.9v2.3h-7.6V158.5z"/>
</g>
<text transform="matrix(1.02 0 0 1 130.0096 170.5703)" class="st5 st6">  </text>
<g class="st4">
	<path d="M140.6,158.5h2.8v7.6c0,3.4-1.7,4.6-4.3,4.6c-0.6,0-1.5-0.1-2-0.3l0.3-2.2c0.4,0.1,0.9,0.2,1.4,0.2c1.2,0,1.9-0.5,1.9-2.4
		V158.5z"/>
	<path d="M156.8,164.4c0,3.9-2.4,6.3-6,6.3c-3.6,0-5.7-2.7-5.7-6.1c0-3.6,2.3-6.3,5.9-6.3C154.7,158.3,156.8,161.1,156.8,164.4z
		 M148,164.6c0,2.4,1.1,4,3,4c1.9,0,2.9-1.7,2.9-4.1c0-2.2-1.1-4-3-4C149.1,160.5,148,162.3,148,164.6z"/>
	<path d="M161.4,158.5v6.9c0,2.1,0.8,3.1,2.2,3.1c1.4,0,2.2-1,2.2-3.1v-6.9h2.8v6.7c0,3.7-1.9,5.5-5.1,5.5c-3.1,0-4.9-1.7-4.9-5.5
		v-6.7H161.4z"/>
	<path d="M171,158.7c0.9-0.1,2.2-0.2,3.7-0.2c1.8,0,3.1,0.3,3.9,0.9c0.7,0.6,1.1,1.4,1.1,2.5c0,1.5-1.1,2.6-2.2,3v0.1
		c0.9,0.3,1.3,1.1,1.6,2.2c0.4,1.4,0.8,2.9,1,3.4h-2.8c-0.2-0.3-0.5-1.3-0.9-2.8c-0.3-1.5-0.9-1.9-2-1.9h-0.8v4.7H171V158.7z
		 M173.7,163.9h1.1c1.4,0,2.2-0.7,2.2-1.7c0-1.1-0.8-1.7-2-1.7c-0.7,0-1.1,0.1-1.2,0.1V163.9z"/>
	<path d="M181.7,170.6v-12h3.2l2.5,4.4c0.7,1.3,1.4,2.8,2,4.1h0.1c-0.2-1.6-0.2-3.2-0.2-5v-3.5h2.5v12h-2.9l-2.6-4.6
		c-0.7-1.3-1.5-2.8-2.1-4.2l-0.1,0c0.1,1.6,0.1,3.3,0.1,5.2v3.6H181.7z"/>
	<path d="M197,167.5l-0.9,3.1h-2.9l3.7-12h3.6l3.8,12h-3l-0.9-3.1H197z M200.1,165.4l-0.8-2.6c-0.2-0.7-0.4-1.6-0.6-2.3h0
		c-0.2,0.7-0.4,1.6-0.6,2.3l-0.7,2.6H200.1z"/>
	<path d="M206.1,158.5h2.8v9.7h4.9v2.3h-7.6V158.5z"/>
</g>
</svg>
