<svg id="Layer_1" data-name="Layer 1" xmlns="http://www.w3.org/2000/svg" viewBox="0 0 252.92 252.92"><defs><style>.cls-1{fill:#05234b;}.cls-2{fill:#ffcc01;}.cls-3,.cls-4{fill:none;stroke-miterlimit:10;}.cls-3{stroke:#ffcc01;stroke-width:2px;}.cls-4{stroke:#fff;stroke-width:1.42px;opacity:0;}.cls-5{font-size:25.51px;fill:#fff;font-family:MyriadPro-BoldCond, Myriad Pro;font-weight:700;}</style></defs><path class="cls-1" d="M252.91,126.42A126.46,126.46,0,1,1,126.41,0h0A126.45,126.45,0,0,1,252.91,126.42" transform="translate(0.01 0)"/><path class="cls-2" d="M89.34,117.36c0,14.83-6.64,23.18-13.37,28.74-5.5,4.54-13,6.91-17.82,6.91-18.49,0-33.66-14.84-33.66-35.65,0-14.53,7.3-23.6,12.89-27.93a31.1,31.1,0,0,1,19-6.39C74.93,83,89.34,98.09,89.34,117.36ZM40.89,91.91c-2.65,3-6.83,9.68-6.83,22.87,0,9.58,3.42,19.78,9.11,26.69,4.26,5.15,9.67,8.65,16.11,8.65,5,0,9.68-2.88,12.9-6.39,5-5.35,7.4-15.35,7.4-24.11,0-14.42-8.63-34-26-34C48.47,85.62,43.64,88.92,40.89,91.91Z" transform="translate(0.01 0)"/><path class="cls-2" d="M109.07,84.69c2.37,0,9.11.31,13.47.31.47,0,.94.83,1,1.13.28,2.17,1.9,6.08,5.5,14.43,3.22,7.62,11.28,27.1,15.45,35.14.1.31.76,0,.95-.42,3.89-7.93,13.28-30.8,17.73-40.18,1.14-2.58,2.09-5.87,3.23-8.86.19-.41.57-1.34,1-1.34,5.12-.11,11.66-.21,13.18-.21,1,0,1.9.21,1.9.83s-.95,1.23-2,1.44c-6.07,1.23-6.55,2.88-6.55,6.39-.28,20.5.57,33.9.86,40.8.38,12.37,1,13.19,6.73,14.63,1.52.41,2.08.93,2.08,1.65s-.47,1-2.65,1c-2.37,0-8.15-.51-11.85-.51-2.75,0-5.79.31-7.87.31-1.71,0-2.18-.42-2.18-1.14s.76-1.13,2.08-1.44c3.13-.72,4.55-2.47,4.74-7.11.67-14.63.1-29.68-.09-44,0-.41-.48-.62-.57-.41-4,8.35-15.27,35.44-17.45,40.8s-3.5,8.86-4.36,11.54c-.66,2-1.32,2.79-1.89,2.79s-1.43-1.76-1.9-3.2-1.71-4.64-4.36-11.44c-4.46-11.23-10-25.24-15.27-37.81-.76-1.65-1.23.41-1.33,1.34-.56,6.59-1.23,30.7-1.23,38.43,0,6.91,2.09,7.21,6.16,8.86,1,.31,2.28.93,2.28,1.65,0,.93-1.71,1.24-2.47,1.24-1.32,0-4.45-.41-8.53-.41-4.36,0-6.54.51-7.77.51-1.62,0-2.47-.31-2.47-1.13s1-1,2.28-1.55c4.45-1.65,5.59-3.09,6.35-10.1,1.14-10.61,2.75-33.28,2.84-44,0-1.45-1.32-5.16-2.84-6.08a33,33,0,0,0-4.84-1.75c-.75-.21-1.51-.73-1.51-1.45C107,84.9,107.65,84.69,109.07,84.69Z" transform="translate(0.01 0)"/><path class="cls-2" d="M206.6,84.49c1.38,0,3.08.1,4.9.2s3.73.21,5.53.21,3.58-.08,5.1-.16,2.87-.15,4.1-.15a3.84,3.84,0,0,1,1.77.28.77.77,0,0,1,.41.75.86.86,0,0,1-.44.67,5,5,0,0,1-1.64.67c-2,.51-3.16,1.11-3.77,2.48s-.74,3.55-.78,7.2c-.05,4.33-.08,9.82-.1,15.49s-.05,11.52-.1,16.57c-.09,6.59-.19,11.25-.34,14.83s-.34,6.07-.63,8.33c-.8,6.18-3.8,11.75-9.27,15a23.3,23.3,0,0,1-17.06,3.06c0-1.25,0-5.3,0-7.33,0-2.83,0-3.11,0-3.86.23,0,4.7,2.13,5.7,2.47a22.15,22.15,0,0,0,6.43.76,4.07,4.07,0,0,0,2.21-.71,5.92,5.92,0,0,0,1.78-1.87c1-2.06,1.7-4,2.11-8.18s.54-10.73.54-22c0-6.28-.05-11.82-.13-17s-.2-9.85-.34-14.48c-.05-4.12-.29-6.57-1.16-8.13s-2.4-2.23-5-2.79a4.78,4.78,0,0,1-1.65-.6.94.94,0,0,1-.53-.74.84.84,0,0,1,.58-.75A4.51,4.51,0,0,1,206.6,84.49Z" transform="translate(0.01 0)"/><line class="cls-3" x1="96.27" y1="83.51" x2="96.27" y2="153.47"/><line class="cls-4" x1="96.27" y1="83.51" x2="96.27" y2="153.47"/><line class="cls-3" x1="192.15" y1="83.51" x2="192.15" y2="153.47"/><line class="cls-4" x1="192.15" y1="83.51" x2="192.15" y2="153.47"/><text class="cls-5" transform="translate(34.99 170.57) scale(0.71 0.7)">OMAN</text><text class="cls-5" transform="translate(71.26 170.57) scale(1.02 1)"><tspan xml:space="preserve">  </tspan></text><text class="cls-5" transform="translate(78.23 170.57) scale(0.71 0.7)">MEDICAL</text><text class="cls-5" transform="translate(130.01 170.57) scale(1.02 1)"><tspan xml:space="preserve">  </tspan></text><text class="cls-5" transform="translate(136.98 170.57) scale(0.71 0.7)">JOURNAL</text></svg>